# Blender 4.1.1
# www.blender.org
mtllib playerBody.mtl
o 立方体
v 0.945388 0.045067 0.326813
v 0.945388 0.525636 0.326813
v 0.119559 0.045067 0.326813
v 0.119559 0.525636 0.326813
v 0.945388 0.045067 -0.338636
v 0.945388 0.525636 -0.338636
v 0.119559 0.045067 -0.338636
v 0.119559 0.525636 -0.338636
v 0.943236 0.646640 -0.724963
v 0.943236 2.068287 -0.724963
v 0.953810 0.646640 0.695121
v 0.953810 2.068287 0.695121
v -0.952245 0.646640 -0.710850
v -0.952245 2.068287 -0.710850
v -0.941671 0.646640 0.709235
v -0.941671 2.068287 0.709235
v 0.602345 2.177366 -0.552476
v 0.602345 2.939116 -0.552476
v 0.610388 2.177366 0.527729
v 0.610388 2.939116 0.527729
v -0.608823 2.177366 -0.543457
v -0.608823 2.939116 -0.543457
v -0.600780 2.177366 0.536747
v -0.600780 2.939116 0.536747
v -0.117965 0.045067 0.326813
v -0.117965 0.525636 0.326813
v -0.943793 0.045067 0.326813
v -0.943793 0.525636 0.326813
v -0.117965 0.045067 -0.338636
v -0.117965 0.525636 -0.338636
v -0.943793 0.045067 -0.338636
v -0.943793 0.525636 -0.338636
v 0.454532 2.313135 -0.631662
v 0.454532 2.752729 -0.631662
v 0.463771 2.313135 0.609107
v 0.463771 2.752729 0.609107
v -0.462206 2.313135 -0.624835
v -0.462206 2.752729 -0.624835
v -0.452967 2.313135 0.615933
v -0.452967 2.752729 0.615933
v 0.592723 0.882187 -0.805810
v 0.592723 1.691434 -0.805810
v 0.604540 0.882187 0.781178
v 0.604540 1.691434 0.781178
v -0.602974 0.882187 -0.796907
v -0.602974 1.691434 -0.796907
v -0.591158 0.882187 0.790081
v -0.591158 1.691434 0.790081
vn -0.0000 -0.0000 1.0000
vn -1.0000 -0.0000 -0.0000
vn -0.0000 -0.0000 -1.0000
vn 1.0000 -0.0000 -0.0000
vn -0.0000 -1.0000 -0.0000
vn -0.0000 1.0000 -0.0000
vn 1.0000 -0.0000 -0.0074
vn 0.0074 -0.0000 1.0000
vn -1.0000 -0.0000 0.0074
vn -0.0074 -0.0000 -1.0000
vt 0.166590 0.666590
vt 0.083410 0.749769
vt 0.083410 0.666590
vt 0.166590 0.749769
vt 0.083410 0.832949
vt 0.166590 0.832949
vt 0.083410 0.916129
vt 0.166590 0.916129
vt 0.083410 0.999308
vt 0.000231 0.916129
vt 0.000231 0.832949
vt 0.249769 0.832949
vt 0.416590 0.666590
vt 0.333410 0.749769
vt 0.333410 0.666590
vt 0.416590 0.749769
vt 0.333410 0.832949
vt 0.416590 0.832949
vt 0.333410 0.916129
vt 0.416590 0.916129
vt 0.333410 0.999308
vt 0.250231 0.832949
vt 0.250231 0.916129
vt 0.499769 0.832949
vt 0.666590 0.666590
vt 0.583410 0.749769
vt 0.583410 0.666590
vt 0.666590 0.749769
vt 0.583410 0.832949
vt 0.666590 0.832949
vt 0.583410 0.916129
vt 0.666590 0.916129
vt 0.583410 0.999308
vt 0.500231 0.832949
vt 0.500231 0.916129
vt 0.749769 0.832949
vt 0.916590 0.666590
vt 0.833410 0.749769
vt 0.833410 0.666590
vt 0.916590 0.749769
vt 0.833410 0.832949
vt 0.916590 0.832949
vt 0.833410 0.916129
vt 0.916590 0.916129
vt 0.833410 0.999308
vt 0.750231 0.916129
vt 0.750231 0.832949
vt 0.999769 0.832949
vt 0.333180 0.000231
vt 0.166705 0.166705
vt 0.166705 0.000231
vt 0.333180 0.166705
vt 0.166705 0.333180
vt 0.333180 0.333180
vt 0.166705 0.499654
vt 0.333180 0.499654
vt 0.166705 0.666129
vt 0.000231 0.333180
vt 0.000231 0.499654
vt 0.499654 0.333180
vt 0.833064 0.000231
vt 0.666590 0.166705
vt 0.666590 0.000231
vt 0.833064 0.166705
vt 0.666590 0.333180
vt 0.833064 0.333180
vt 0.666590 0.499654
vt 0.833064 0.499654
vt 0.666590 0.666129
vt 0.500115 0.333180
vt 0.500115 0.499654
vt 0.999539 0.333180
vt 0.166590 0.999308
vt 0.249769 0.916129
vt 0.416590 0.999308
vt 0.499769 0.916129
vt 0.666590 0.999308
vt 0.749769 0.916129
vt 0.916590 0.999308
vt 0.999769 0.916129
vt 0.333180 0.666129
vt 0.499654 0.499654
vt 0.833064 0.666129
vt 0.999539 0.499654
s 0
usemtl マテリアル
f 2/1/1 3/2/1 1/3/1
f 4/4/2 7/5/2 3/2/2
f 8/6/3 5/7/3 7/5/3
f 6/8/4 1/9/4 5/7/4
f 7/5/5 1/10/5 3/11/5
f 4/12/6 6/8/6 8/6/6
f 10/13/7 11/14/7 9/15/7
f 12/16/8 15/17/8 11/14/8
f 16/18/9 13/19/9 15/17/9
f 14/20/10 9/21/10 13/19/10
f 11/22/5 13/19/5 9/23/5
f 12/24/6 14/20/6 16/18/6
f 18/25/7 19/26/7 17/27/7
f 20/28/8 23/29/8 19/26/8
f 24/30/9 21/31/9 23/29/9
f 22/32/10 17/33/10 21/31/10
f 19/34/5 21/31/5 17/35/5
f 20/36/6 22/32/6 24/30/6
f 26/37/1 27/38/1 25/39/1
f 28/40/2 31/41/2 27/38/2
f 32/42/3 29/43/3 31/41/3
f 30/44/4 25/45/4 29/43/4
f 31/41/5 25/46/5 27/47/5
f 28/48/6 30/44/6 32/42/6
f 34/49/7 35/50/7 33/51/7
f 36/52/8 39/53/8 35/50/8
f 40/54/9 37/55/9 39/53/9
f 38/56/10 33/57/10 37/55/10
f 35/58/5 37/55/5 33/59/5
f 36/60/6 38/56/6 40/54/6
f 42/61/7 43/62/7 41/63/7
f 44/64/8 47/65/8 43/62/8
f 48/66/9 45/67/9 47/65/9
f 46/68/10 41/69/10 45/67/10
f 43/70/5 45/67/5 41/71/5
f 44/72/6 46/68/6 48/66/6
f 2/1/1 4/4/1 3/2/1
f 4/4/2 8/6/2 7/5/2
f 8/6/3 6/8/3 5/7/3
f 6/8/4 2/73/4 1/9/4
f 7/5/5 5/7/5 1/10/5
f 4/12/6 2/74/6 6/8/6
f 10/13/7 12/16/7 11/14/7
f 12/16/8 16/18/8 15/17/8
f 16/18/9 14/20/9 13/19/9
f 14/20/10 10/75/10 9/21/10
f 11/22/5 15/17/5 13/19/5
f 12/24/6 10/76/6 14/20/6
f 18/25/7 20/28/7 19/26/7
f 20/28/8 24/30/8 23/29/8
f 24/30/9 22/32/9 21/31/9
f 22/32/10 18/77/10 17/33/10
f 19/34/5 23/29/5 21/31/5
f 20/36/6 18/78/6 22/32/6
f 26/37/1 28/40/1 27/38/1
f 28/40/2 32/42/2 31/41/2
f 32/42/3 30/44/3 29/43/3
f 30/44/4 26/79/4 25/45/4
f 31/41/5 29/43/5 25/46/5
f 28/48/6 26/80/6 30/44/6
f 34/49/7 36/52/7 35/50/7
f 36/52/8 40/54/8 39/53/8
f 40/54/9 38/56/9 37/55/9
f 38/56/10 34/81/10 33/57/10
f 35/58/5 39/53/5 37/55/5
f 36/60/6 34/82/6 38/56/6
f 42/61/7 44/64/7 43/62/7
f 44/64/8 48/66/8 47/65/8
f 48/66/9 46/68/9 45/67/9
f 46/68/10 42/83/10 41/69/10
f 43/70/5 47/65/5 45/67/5
f 44/72/6 42/84/6 46/68/6
